<?xml version="1.0" encoding="iso-8859-1"?>
<!-- Generator: Adobe Illustrator 19.0.0, SVG Export Plug-In . SVG Version: 6.00 Build 0)  -->
<svg version="1.1" id="Capa_1" xmlns="http://www.w3.org/2000/svg" xmlns:xlink="http://www.w3.org/1999/xlink" x="0px" y="0px"
	 viewBox="0 0 512 512" style="enable-background:new 0 0 512 512;" xml:space="preserve">
<path style="fill:#415A6B;" d="M258.133,185.622c12.8-1.067,12.8-1.067,12.8-1.067l14.933,125.867l-9.6,13.867
	c0,0-38.4-53.333-37.333-74.667C240,228.288,245.333,187.755,258.133,185.622z"/>
<polygon style="fill:#F05540;" points="0,376.555 0,477.888 512,477.888 512,405.355 "/>
<rect y="446.955" style="fill:#F3705A;" width="512" height="30.933"/>
<g>
	<path style="fill:#344A5E;" d="M312.533,169.622c0,0-42.667,11.733-48,13.867c-6.4,2.133-12.8,4.267-13.867,14.933
		c-1.067,10.667-6.4,55.467,11.733,97.067l-13.867,90.667l76.8,1.067l-9.6-58.667C316.8,328.555,304,190.955,312.533,169.622z"/>
	<path style="fill:#344A5E;" d="M405.333,173.888c0,0,48,7.467,84.267,37.333l-33.067,176l-144,14.933v-30.933
		C320,347.755,368,250.688,405.333,173.888z"/>
</g>
<path style="fill:#FFD15C;" d="M314.667,375.488c0,0-24.533,3.2-35.2,3.2c-10.667,0-25.6-7.467-34.133-10.667
	c-8.533-3.2-12.8-1.067-18.133,2.133c-4.267,3.2-12.8,27.733-12.8,30.933c0,3.2,49.067,9.6,61.867,7.467
	c12.8-2.133,17.067-3.2,25.6-3.2s26.667,0,26.667,0S341.333,377.622,314.667,375.488z"/>
<path style="fill:#F7B64C;" d="M228.267,369.088c-4.267,3.2-10.667,20.267-12.8,27.733c1.067,1.067,2.133,3.2,4.267,5.333
	c4.267,1.067,10.667,2.133,18.133,3.2c0-2.133-1.067-3.2-2.133-4.267c0,0-1.067-1.067-2.133-3.2c2.133,2.133,4.267,3.2,5.333,3.2
	c2.133,0,4.267-1.067,5.333-3.2c1.067-2.133,2.133-5.333,1.067-7.467c-2.133-4.267-11.733-16-13.867-19.2
	c0,0,1.067-1.067,2.133-1.067c0,0,0,0,1.067,0s6.4,6.4,9.6,9.6c4.267,4.267,6.4,7.467,7.467,7.467
	c1.067,1.067,2.133,1.067,3.2,1.067c1.067,0,2.133,0,4.267-1.067c2.133-2.133,0-6.4-2.133-10.667c0-1.067,0-1.067-1.067-1.067
	c0-1.067-2.133-3.2-4.267-6.4c-2.133-1.067-4.267-2.133-5.333-2.133C236.8,363.755,232.533,364.822,228.267,369.088z"/>
<path style="fill:#FFD15C;" d="M215.467,394.688c0,0,10.667,14.933,17.067,14.933c6.4,0,5.333-6.4,3.2-8.533
	c-2.133-2.133-14.933-17.067-14.933-17.067l1.067-1.067c0,0,14.933,18.133,18.133,18.133c3.2,0,7.467-4.267,5.333-9.6
	c-2.133-4.267-13.867-19.2-13.867-19.2s2.133-2.133,4.267-1.067c2.133,1.067,14.933,16,17.067,17.067s4.267,1.067,6.4,0
	c2.133-2.133-2.133-9.6-3.2-11.733c-1.067-2.133-12.8-18.133-14.933-20.267c-2.133-2.133-13.867-7.467-16,0c0,0-2.133,3.2-5.333,3.2
	s-6.4,2.133-6.4,6.4C210.133,368.022,215.467,394.688,215.467,394.688z"/>
<path style="fill:#F3F3F3;" d="M308.267,374.422c0,0,8.533,2.133,11.733,11.733c3.2,10.667,1.067,21.333,1.067,21.333h28.8v-36.267
	L308.267,374.422z"/>
<path style="fill:#FFD15C;" d="M295.467,125.888l4.267,19.2c0,0,1.067,13.867,20.267,33.067l4.267,56.533l40.533-4.267
	c17.067-20.267,27.733-32,45.867-52.267l0,0c0,0-24.533-14.933-26.667-21.333c-2.133-6.4-2.133-30.933-2.133-30.933
	s0-50.133-8.533-67.2s-76.8-4.267-81.067,16C289.067,96.022,295.467,125.888,295.467,125.888z"/>
<path style="fill:#F7B64C;" d="M382.933,150.422L382.933,150.422c-20.267,38.4-43.733,36.267-43.733,36.267
	c-13.867,1.067-19.2-7.467-19.2-7.467l2.133,33.067C369.067,201.622,381.867,154.688,382.933,150.422z"/>
<path style="fill:#E8EAE9;" d="M320,178.155l2.133,28.8c0,0-7.467,3.2-16,24.533v-41.6L320,178.155z"/>
<path style="fill:#CED6E0;" d="M323.2,206.955c0,0,2.133,1.067,5.333,5.333c2.133,3.2,8.533,17.067,8.533,17.067
	s4.267-9.6,5.333-13.867c1.067-4.267,0-8.533,3.2-10.667c3.2-1.067,12.8-1.067,12.8-1.067l37.333,1.067l-77.867,147.2L304,204.822
	C304,204.822,318.933,201.622,323.2,206.955z"/>
<path style="fill:#415A6B;" d="M295.467,125.888c-1.067-10.667-1.067-21.333-2.133-32c0-4.267-1.067-7.467,0-11.733
	c1.067-4.267,3.2-7.467,6.4-8.533c2.133-1.067,5.333-1.067,7.467-1.067h43.733c4.267,0,9.6,0,12.8,3.2
	c1.067,1.067,2.133,3.2,3.2,4.267c12.8,14.933,3.2,38.4,4.267,42.667h19.2c0-1.067,0-3.2,0-4.267c0-11.733,0-23.467,0-36.267
	c0-9.6,0-20.267-5.333-28.8c-5.333-9.6-16-16-26.667-18.133c-10.667-2.133-22.4-1.067-33.067,2.133
	c-7.467,2.133-16,4.267-21.333,9.6c-4.267,4.267-7.467,9.6-9.6,14.933c-5.333,5.333-7.467,11.733-8.533,19.2s0,14.933,1.067,22.4
	C289.067,110.955,295.467,125.888,295.467,125.888z"/>
<ellipse transform="matrix(0.0516 -0.9987 0.9987 0.0516 249.0204 496.9858)" style="fill:#FFD15C;" cx="386.163" cy="117.389" rx="17.067" ry="9.6"/>
<path style="fill:#E8EAE9;" d="M386.133,158.955c0,0,3.2,17.067-39.467,45.867c0,0,24.533,12.8,26.667,33.067l29.867-65.067
	L386.133,158.955z"/>
<g>
	<path style="fill:#415A6B;" d="M392.533,164.288c0,0-8.533,23.467-22.4,49.067c-13.867,25.6-56.533,140.8-57.6,157.867
		c0,0,9.6-23.467,16-33.067c6.4-9.6,76.8-108.8,76.8-108.8l-12.8-11.733l12.8-6.4c0,0,8.533-27.733,6.4-35.2
		C410.667,168.555,407.467,170.688,392.533,164.288z"/>
	<path style="fill:#415A6B;" d="M322.133,345.622l-3.2,7.467c-17.067-45.867-28.8-91.733-30.933-135.467l11.733-8.533l-5.333-5.333
		l19.2-34.133c2.133,2.133,3.2,4.267,5.333,6.4c-1.067,5.333-5.333,37.333-3.2,78.933
		C317.867,299.755,325.333,332.822,322.133,345.622z"/>
	<path style="fill:#415A6B;" d="M428.8,288.022c0,0,3.2-30.933,21.333-56.533c18.133-25.6,40.533-20.267,40.533-20.267
		s10.667,6.4,6.4,32c-4.267,25.6-3.2,73.6-3.2,90.667c0,17.067,3.2,61.867-25.6,69.333c-28.8,8.533-132.267,8.533-132.267,8.533
		s6.4-27.733-3.2-35.2c-9.6-6.4-9.6-6.4-9.6-6.4s32-5.333,48-5.333s49.067-6.4,49.067-6.4s1.067-11.733,4.267-20.267
		c3.2-8.533,2.133-23.467,3.2-30.933C428.8,299.755,428.8,288.022,428.8,288.022z"/>
	<path style="fill:#415A6B;" d="M275.2,325.355c0,5.333-3.2,50.133-3.2,50.133c-7.467-4.267-13.867-7.467-20.267-9.6
		c-29.867-10.667-48,3.2-48,3.2v-10.667c0,0,11.733-33.067,16-44.8s7.467-30.933,7.467-38.4s3.2-8.533,4.267-13.867
		c1.067-5.333,5.333-38.4,11.733-57.6c6.4-19.2,13.867-18.133,13.867-18.133c-3.2,2.133-6.4,5.333-7.467,11.733
		c-1.067,10.667-6.4,55.467,11.733,97.067C262.4,295.488,275.2,320.022,275.2,325.355z"/>
</g>
<path style="fill:#ADB3BA;" d="M301.867,413.888c0,0,6.4-4.267,6.4-6.4l-110.933-8.533l17.067,26.667L301.867,413.888z"/>
<g>
	<path style="fill:#CED6E0;" d="M308.267,407.488c-1.067,3.2-56.533,9.6-70.4,12.8c-7.467,1.067-12.8,2.133-16,2.133l1.067,9.6
		c0,0,64-9.6,76.8-10.667C311.467,419.222,308.267,407.488,308.267,407.488z"/>
	<path style="fill:#CED6E0;" d="M222.933,430.955l-23.467-152.533c0-3.2-3.2-6.4-6.4-6.4l-188.8-11.733l26.667,142.933
		L222.933,430.955z"/>
</g>
<path style="fill:#E8EAE9;" d="M222.933,430.955c-1.067,0-3.2-1.067-3.2-2.133l-22.4-150.4c0-2.133-2.133-3.2-4.267-4.267
	l-185.6-11.733c-1.067,0-2.133-1.067-2.133-3.2l0,0c0-1.067,1.067-2.133,3.2-2.133l185.6,12.8c4.267,0,8.533,4.267,9.6,8.533
	l22.4,150.4C225.067,429.888,224,430.955,222.933,430.955L222.933,430.955z"/>
<g>
</g>
<g>
</g>
<g>
</g>
<g>
</g>
<g>
</g>
<g>
</g>
<g>
</g>
<g>
</g>
<g>
</g>
<g>
</g>
<g>
</g>
<g>
</g>
<g>
</g>
<g>
</g>
<g>
</g>
</svg>
